<mxfile host="65bd71144e">
    <diagram id="p-0duPtCVMYDrHfG0k5p" name="Å ema">
        <mxGraphModel dx="1345" dy="989" grid="1" gridSize="10" guides="1" tooltips="1" connect="1" arrows="1" fold="1" page="1" pageScale="1" pageWidth="850" pageHeight="1100" math="0" shadow="0">
            <root>
                <mxCell id="0"/>
                <mxCell id="1" parent="0"/>
                <mxCell id="2" value="&lt;font style=&quot;font-size: 24px;&quot;&gt;Initiator&lt;br&gt;A&lt;/font&gt;" style="ellipse;whiteSpace=wrap;html=1;" vertex="1" parent="1">
                    <mxGeometry x="40" y="160" width="160" height="80" as="geometry"/>
                </mxCell>
                <mxCell id="3" value="&lt;font style=&quot;font-size: 24px;&quot;&gt;Responder&lt;br&gt;B&lt;/font&gt;" style="ellipse;whiteSpace=wrap;html=1;" vertex="1" parent="1">
                    <mxGeometry x="680" y="160" width="160" height="80" as="geometry"/>
                </mxCell>
                <mxCell id="4" value="&lt;b&gt;(1)&lt;/b&gt; ID&lt;sub&gt;A&lt;/sub&gt; || N&lt;sub&gt;1&lt;/sub&gt;" style="endArrow=classic;html=1;fontSize=24;exitX=1;exitY=0;exitDx=0;exitDy=0;endFill=1;" edge="1" parent="1" source="2">
                    <mxGeometry width="50" height="50" relative="1" as="geometry">
                        <mxPoint x="350" y="120" as="sourcePoint"/>
                        <mxPoint x="700" y="170" as="targetPoint"/>
                        <Array as="points">
                            <mxPoint x="240" y="120"/>
                            <mxPoint x="640" y="120"/>
                        </Array>
                    </mxGeometry>
                </mxCell>
                <mxCell id="5" value="&lt;b&gt;(2)&lt;/b&gt; E(K&lt;sub&gt;m&lt;/sub&gt;, [K&lt;sub&gt;s&lt;/sub&gt; || ID&lt;sub&gt;A&lt;/sub&gt; || ID&lt;sub&gt;B&lt;/sub&gt; || f(N&lt;sub&gt;1&lt;/sub&gt;) || N&lt;sub&gt;2&lt;/sub&gt;])" style="endArrow=classic;html=1;fontSize=24;exitX=0;exitY=0.5;exitDx=0;exitDy=0;entryX=1;entryY=0.5;entryDx=0;entryDy=0;" edge="1" parent="1" source="3" target="2">
                    <mxGeometry width="50" height="50" relative="1" as="geometry">
                        <mxPoint x="440" y="270" as="sourcePoint"/>
                        <mxPoint x="490" y="220" as="targetPoint"/>
                    </mxGeometry>
                </mxCell>
                <mxCell id="6" value="&lt;b&gt;(3)&lt;/b&gt; E(K&lt;sub&gt;s&lt;/sub&gt;, f(N&lt;sub&gt;2&lt;/sub&gt;))" style="endArrow=none;html=1;fontSize=24;exitX=0;exitY=1;exitDx=0;exitDy=0;entryX=1;entryY=1;entryDx=0;entryDy=0;startArrow=classic;startFill=1;endFill=0;" edge="1" parent="1" source="3" target="2">
                    <mxGeometry width="50" height="50" relative="1" as="geometry">
                        <mxPoint x="530" y="380" as="sourcePoint"/>
                        <mxPoint x="580" y="330" as="targetPoint"/>
                        <Array as="points">
                            <mxPoint x="640" y="280"/>
                            <mxPoint x="240" y="280"/>
                        </Array>
                    </mxGeometry>
                </mxCell>
            </root>
        </mxGraphModel>
    </diagram>
</mxfile>
